# xmcd
#
# Track frame offsets: 
#        150
#        11514
#        25718
#        40072
#        53925
#        74240
#        91680
#        114818
#        126999
#        137457
#
# Disc length: 2167 seconds
#
# Revision: 1
# Processed by: cddbd v1.5.2PL0 Copyright (c) Steve Scherf et al.
# Submitted via: ExactAudioCopy v1.0b3
#
DISCID=7c08750a
DTITLE=Berry, Chuck - Rock It
DYEAR=1979
DGENRE=Rock 'n' Roll
TTITLE0=Move It
TTITLE1=Oh What A Thrill
TTITLE2=I Need You Baby
TTITLE3=If I Were
TTITLE4=House Lights
TTITLE5=I Never Thought
TTITLE6=Havana Moon
TTITLE7=Wuden't Me
TTITLE8=California
TTITLE9=Pass Away
EXTD=
EXTT0=
EXTT1=
EXTT2=
EXTT3=
EXTT4=
EXTT5=
EXTT6=
EXTT7=
EXTT8=
EXTT9=
PLAYORDER=
